<svg width="40" height="40" viewBox="0 0 40 40" fill="none" xmlns="http://www.w3.org/2000/svg">
<path fill-rule="evenodd" clip-rule="evenodd" d="M12.3704 33.0339C13.0738 33.0339 13.6454 33.6055 13.6454 34.3089C13.6454 35.0122 13.0738 35.5822 12.3704 35.5822C11.6671 35.5822 11.0971 35.0122 11.0971 34.3089C11.0971 33.6055 11.6671 33.0339 12.3704 33.0339Z" stroke="#200E32" stroke-width="1.5" stroke-linecap="round" stroke-linejoin="round"/>
<path fill-rule="evenodd" clip-rule="evenodd" d="M31.1245 33.0339C31.8278 33.0339 32.3995 33.6055 32.3995 34.3089C32.3995 35.0122 31.8278 35.5822 31.1245 35.5822C30.4212 35.5822 29.8495 35.0122 29.8495 34.3089C29.8495 33.6055 30.4212 33.0339 31.1245 33.0339Z" stroke="#200E32" stroke-width="1.5" stroke-linecap="round" stroke-linejoin="round"/>
<path d="M4.58313 5.41669L8.0498 6.01669L9.6548 25.1384C9.7848 26.6967 11.0865 27.8934 12.6498 27.8934H30.8365C32.3298 27.8934 33.5965 26.7967 33.8115 25.3167L35.3931 14.3867C35.5881 13.0384 34.5431 11.8317 33.1815 11.8317H8.60646" stroke="#200E32" stroke-width="1.5" stroke-linecap="round" stroke-linejoin="round"/>
<path d="M23.5423 17.9917H28.164" stroke="#200E32" stroke-width="1.5" stroke-linecap="round" stroke-linejoin="round"/>
</svg>
